<?xml version="1.0" encoding="UTF-8" standalone="no" ?>
<!DOCTYPE svg PUBLIC "-//W3C//DTD SVG 1.1//EN" "http://www.w3.org/Graphics/SVG/1.1/DTD/svg11.dtd">
<svg xmlns="http://www.w3.org/2000/svg" xmlns:xlink="http://www.w3.org/1999/xlink" version="1.1" width="360" height="360" viewBox="0 0 360 360" xml:space="preserve">
<desc>Created with Fabric.js 5.2.4</desc>
<defs>
</defs>
<g transform="matrix(1 0 0 1 180 180)" id="fe6fd046-dd94-4a1a-b077-4834902dd819"  >
<rect style="stroke: none; stroke-width: 1; stroke-dasharray: none; stroke-linecap: butt; stroke-dashoffset: 0; stroke-linejoin: miter; stroke-miterlimit: 4; fill: rgb(255,255,255); fill-rule: nonzero; opacity: 1; visibility: hidden;" vector-effect="non-scaling-stroke"  x="-180" y="-180" rx="0" ry="0" width="360" height="360" />
</g>
<g transform="matrix(Infinity NaN NaN Infinity 0 0)" id="41102f5e-7ca6-4daa-b4b4-5a82ccb3d873"  >
</g>
<g transform="matrix(1 0 0 1.01 180 180)"  >
<g style="" vector-effect="non-scaling-stroke"   >
		<g transform="matrix(5.04 0 0 4.74 0 0)"  >
<circle style="stroke: rgb(0,0,0); stroke-width: 0; stroke-dasharray: none; stroke-linecap: butt; stroke-dashoffset: 0; stroke-linejoin: miter; stroke-miterlimit: 4; fill: rgb(109,95,224); fill-rule: nonzero; opacity: 1;" vector-effect="non-scaling-stroke"  cx="0" cy="0" r="35" />
</g>
		<g transform="matrix(7.07 0 0 6.64 0.17 0.35)"  >
<path style="stroke: none; stroke-width: 1; stroke-dasharray: none; stroke-linecap: butt; stroke-dashoffset: 0; stroke-linejoin: miter; stroke-miterlimit: 4; fill: rgb(66,58,157); fill-rule: nonzero; opacity: 1;" vector-effect="non-scaling-stroke"  transform=" translate(-24, -24)" d="M 24 48 C 10.745 48 0 37.255 0 24 C 0 10.744999999999997 10.745 0 24 0 C 37.255 0 48 10.745 48 24 C 48 37.255 37.255 48 24 48 Z M 24 2 C 11.85 2 2 11.85 2 24 C 2 36.15 11.85 46 24 46 C 36.15 46 46 36.15 46 24 C 46 11.850000000000001 36.15 2 24 2 Z" stroke-linecap="round" />
</g>
		<g transform="matrix(7.07 0 0 6.64 0.17 0.35)"  >
<path style="stroke: none; stroke-width: 1; stroke-dasharray: none; stroke-linecap: butt; stroke-dashoffset: 0; stroke-linejoin: miter; stroke-miterlimit: 4; fill: rgb(66,58,157); fill-rule: nonzero; opacity: 1;" vector-effect="non-scaling-stroke"  transform=" translate(-24, -24)" d="M 24 48 C 16.15 48 10 37.46 10 24 C 10 10.54 16.15 0 24 0 C 31.85 0 38 10.54 38 24 C 38 37.46 31.85 48 24 48 Z M 24 2 C 17.38 2 12 11.87 12 24 C 12 36.13 17.38 46 24 46 C 30.62 46 36 36.13 36 24 C 36 11.869999999999997 30.62 2 24 2 Z" stroke-linecap="round" />
</g>
		<g transform="matrix(7.07 0 0 6.64 0.17 10.31)"  >
<rect style="stroke: none; stroke-width: 1; stroke-dasharray: none; stroke-linecap: butt; stroke-dashoffset: 0; stroke-linejoin: miter; stroke-miterlimit: 4; fill: rgb(66,58,157); fill-rule: nonzero; opacity: 1;" vector-effect="non-scaling-stroke"  x="-1" y="-21.5" rx="0" ry="0" width="2" height="43" />
</g>
		<g transform="matrix(7.07 0 0 6.64 -45.78 0.35)"  >
<rect style="stroke: none; stroke-width: 1; stroke-dasharray: none; stroke-linecap: butt; stroke-dashoffset: 0; stroke-linejoin: miter; stroke-miterlimit: 4; fill: rgb(66,58,157); fill-rule: nonzero; opacity: 1;" vector-effect="non-scaling-stroke"  x="-16.5" y="-1" rx="0" ry="0" width="33" height="2" />
</g>
		<g transform="matrix(7.07 0 0 6.64 127.43 0.35)"  >
<rect style="stroke: none; stroke-width: 1; stroke-dasharray: none; stroke-linecap: butt; stroke-dashoffset: 0; stroke-linejoin: miter; stroke-miterlimit: 4; fill: rgb(66,58,157); fill-rule: nonzero; opacity: 1;" vector-effect="non-scaling-stroke"  x="-5" y="-1" rx="0" ry="0" width="10" height="2" />
</g>
		<g transform="matrix(7.07 0 0 6.64 10.77 -72.69)"  >
<rect style="stroke: none; stroke-width: 1; stroke-dasharray: none; stroke-linecap: butt; stroke-dashoffset: 0; stroke-linejoin: miter; stroke-miterlimit: 4; fill: rgb(66,58,157); fill-rule: nonzero; opacity: 1;" vector-effect="non-scaling-stroke"  x="-18.5" y="-1" rx="0" ry="0" width="37" height="2" />
</g>
		<g transform="matrix(7.07 0 0 6.64 -112.95 73.39)"  >
<rect style="stroke: none; stroke-width: 1; stroke-dasharray: none; stroke-linecap: butt; stroke-dashoffset: 0; stroke-linejoin: miter; stroke-miterlimit: 4; fill: rgb(66,58,157); fill-rule: nonzero; opacity: 1;" vector-effect="non-scaling-stroke"  x="-4" y="-1" rx="0" ry="0" width="8" height="2" />
</g>
		<g transform="matrix(7.07 0 0 6.64 42.59 73.39)"  >
<rect style="stroke: none; stroke-width: 1; stroke-dasharray: none; stroke-linecap: butt; stroke-dashoffset: 0; stroke-linejoin: miter; stroke-miterlimit: 4; fill: rgb(66,58,157); fill-rule: nonzero; opacity: 1;" vector-effect="non-scaling-stroke"  x="-14" y="-1" rx="0" ry="0" width="28" height="2" />
</g>
		<g transform="matrix(6.11 0 0 7.39 -3.3 22.08)"  >
<path style="stroke: none; stroke-width: 1; stroke-dasharray: none; stroke-linecap: butt; stroke-dashoffset: 0; stroke-linejoin: miter; stroke-miterlimit: 4; fill: rgb(255,255,255); fill-rule: nonzero; opacity: 1;" vector-effect="non-scaling-stroke"  transform=" translate(-28, -33)" d="M 18 22 L 38 22 C 40.76142374915397 22 43 24.23857625084603 43 27 L 43 33 C 43 35.76142374915397 40.76142374915397 38 38 38 L 28 38 L 20 44 L 21.5 38 L 18 38 C 15.238576250846034 38 13 35.76142374915397 13 33 L 13 27 C 13 24.238576250846034 15.238576250846034 22 18 22 z" stroke-linecap="round" />
</g>
		<g transform="matrix(6.11 0 0 7.39 -15.52 14.69)"  >
<circle style="stroke: none; stroke-width: 1; stroke-dasharray: none; stroke-linecap: butt; stroke-dashoffset: 0; stroke-linejoin: miter; stroke-miterlimit: 4; fill: rgb(124,58,237); fill-rule: nonzero; opacity: 1;" vector-effect="non-scaling-stroke"  cx="0" cy="0" r="1.5" />
</g>
		<g transform="matrix(6.11 0 0 7.39 8.92 14.69)"  >
<circle style="stroke: none; stroke-width: 1; stroke-dasharray: none; stroke-linecap: butt; stroke-dashoffset: 0; stroke-linejoin: miter; stroke-miterlimit: 4; fill: rgb(124,58,237); fill-rule: nonzero; opacity: 1;" vector-effect="non-scaling-stroke"  cx="0" cy="0" r="1.5" />
</g>
		<g transform="matrix(6.11 0 0 7.39 33.36 14.69)"  >
<circle style="stroke: none; stroke-width: 1; stroke-dasharray: none; stroke-linecap: butt; stroke-dashoffset: 0; stroke-linejoin: miter; stroke-miterlimit: 4; fill: rgb(124,58,237); fill-rule: nonzero; opacity: 1;" vector-effect="non-scaling-stroke"  cx="0" cy="0" r="1.5" />
</g>
		<g transform="matrix(1.79 0 0 1.4 17.98 9.72)"  >
<rect style="stroke: rgb(0,0,0); stroke-width: 0; stroke-dasharray: none; stroke-linecap: butt; stroke-dashoffset: 0; stroke-linejoin: miter; stroke-miterlimit: 4; fill: rgb(255,255,255); fill-rule: nonzero; opacity: 1;" vector-effect="non-scaling-stroke"  x="-37.46" y="-19.415" rx="0" ry="0" width="74.92" height="38.83" />
</g>
		<g transform="matrix(0.45 0 0 0.43 -44.18 0.9)"  >
<circle style="stroke: rgb(0,0,0); stroke-width: 0; stroke-dasharray: none; stroke-linecap: butt; stroke-dashoffset: 0; stroke-linejoin: miter; stroke-miterlimit: 4; fill: rgb(109,95,224); fill-rule: nonzero; opacity: 1;" vector-effect="non-scaling-stroke"  cx="0" cy="0" r="35" />
</g>
		<g transform="matrix(0.45 0 0 0.43 0 0.43)"  >
<circle style="stroke: rgb(0,0,0); stroke-width: 0; stroke-dasharray: none; stroke-linecap: butt; stroke-dashoffset: 0; stroke-linejoin: miter; stroke-miterlimit: 4; fill: rgb(109,95,224); fill-rule: nonzero; opacity: 1;" vector-effect="non-scaling-stroke"  cx="0" cy="0" r="35" />
</g>
		<g transform="matrix(0.45 0 0 0.43 41.91 -0.01)"  >
<circle style="stroke: rgb(0,0,0); stroke-width: 0; stroke-dasharray: none; stroke-linecap: butt; stroke-dashoffset: 0; stroke-linejoin: miter; stroke-miterlimit: 4; fill: rgb(109,95,224); fill-rule: nonzero; opacity: 1;" vector-effect="non-scaling-stroke"  cx="0" cy="0" r="35" />
</g>
</g>
</g>
</svg>