<svg xmlns="http://www.w3.org/2000/svg" xml:space="preserve" viewBox="137.78 -64.4 1080 1080"><circle r="35" style="stroke:#000;stroke-width:0;stroke-dasharray:none;stroke-linecap:butt;stroke-dashoffset:0;stroke-linejoin:miter;stroke-miterlimit:4;fill:#6d5fe0;fill-rule:nonzero;opacity:1" transform="matrix(5.04 0 0 4.74 681.4 409.08)" vector-effect="non-scaling-stroke"/><path d="M24 48C10.745 48 0 37.255 0 24S10.745 0 24 0s24 10.745 24 24-10.745 24-24 24Zm0-46C11.85 2 2 11.85 2 24s9.85 22 22 22 22-9.85 22-22S36.15 2 24 2Z" style="stroke:none;stroke-width:1;stroke-dasharray:none;stroke-linecap:butt;stroke-dashoffset:0;stroke-linejoin:miter;stroke-miterlimit:4;fill:#423a9d;fill-rule:nonzero;opacity:1" transform="matrix(7.07 0 0 6.64 511.89 250.07)" vector-effect="non-scaling-stroke"/><path d="M24 48c-7.85 0-14-10.54-14-24S16.15 0 24 0s14 10.54 14 24-6.15 24-14 24Zm0-46c-6.62 0-12 9.87-12 22s5.38 22 12 22 12-9.87 12-22S30.62 2 24 2Z" style="stroke:none;stroke-width:1;stroke-dasharray:none;stroke-linecap:butt;stroke-dashoffset:0;stroke-linejoin:miter;stroke-miterlimit:4;fill:#423a9d;fill-rule:nonzero;opacity:1" transform="matrix(7.07 0 0 6.64 511.89 250.07)" vector-effect="non-scaling-stroke"/><rect width="2" height="43" x="-1" y="-21.5" rx="0" ry="0" style="stroke:none;stroke-width:1;stroke-dasharray:none;stroke-linecap:butt;stroke-dashoffset:0;stroke-linejoin:miter;stroke-miterlimit:4;fill:#423a9d;fill-rule:nonzero;opacity:1" transform="matrix(7.07 0 0 6.64 681.57 419.39)" vector-effect="non-scaling-stroke"/><rect width="33" height="2" x="-16.5" y="-1" rx="0" ry="0" style="stroke:none;stroke-width:1;stroke-dasharray:none;stroke-linecap:butt;stroke-dashoffset:0;stroke-linejoin:miter;stroke-miterlimit:4;fill:#423a9d;fill-rule:nonzero;opacity:1" transform="matrix(7.07 0 0 6.64 635.615 409.43)" vector-effect="non-scaling-stroke"/><rect width="10" height="2" x="-5" y="-1" rx="0" ry="0" style="stroke:none;stroke-width:1;stroke-dasharray:none;stroke-linecap:butt;stroke-dashoffset:0;stroke-linejoin:miter;stroke-miterlimit:4;fill:#423a9d;fill-rule:nonzero;opacity:1" transform="matrix(7.07 0 0 6.64 808.83 409.43)" vector-effect="non-scaling-stroke"/><rect width="37" height="2" x="-18.5" y="-1" rx="0" ry="0" style="stroke:none;stroke-width:1;stroke-dasharray:none;stroke-linecap:butt;stroke-dashoffset:0;stroke-linejoin:miter;stroke-miterlimit:4;fill:#423a9d;fill-rule:nonzero;opacity:1" transform="matrix(7.07 0 0 6.64 692.175 336.39)" vector-effect="non-scaling-stroke"/><rect width="8" height="2" x="-4" y="-1" rx="0" ry="0" style="stroke:none;stroke-width:1;stroke-dasharray:none;stroke-linecap:butt;stroke-dashoffset:0;stroke-linejoin:miter;stroke-miterlimit:4;fill:#423a9d;fill-rule:nonzero;opacity:1" transform="matrix(7.07 0 0 6.64 568.45 482.47)" vector-effect="non-scaling-stroke"/><rect width="28" height="2" x="-14" y="-1" rx="0" ry="0" style="stroke:none;stroke-width:1;stroke-dasharray:none;stroke-linecap:butt;stroke-dashoffset:0;stroke-linejoin:miter;stroke-miterlimit:4;fill:#423a9d;fill-rule:nonzero;opacity:1" transform="matrix(7.07 0 0 6.64 723.99 482.47)" vector-effect="non-scaling-stroke"/><path d="M18 22h20a5 5 0 0 1 5 5v6a5 5 0 0 1-5 5H28l-8 6 1.5-6H18a5 5 0 0 1-5-5v-6a5 5 0 0 1 5-5z" style="stroke:none;stroke-width:1;stroke-dasharray:none;stroke-linecap:butt;stroke-dashoffset:0;stroke-linejoin:miter;stroke-miterlimit:4;fill:#fff;fill-rule:nonzero;opacity:1" transform="matrix(6.11 0 0 7.39 507.02 187.29)" vector-effect="non-scaling-stroke"/><circle r="1.5" style="stroke:none;stroke-width:1;stroke-dasharray:none;stroke-linecap:butt;stroke-dashoffset:0;stroke-linejoin:miter;stroke-miterlimit:4;fill:#7c3aed;fill-rule:nonzero;opacity:1" transform="matrix(6.11 0 0 7.39 665.88 423.77)" vector-effect="non-scaling-stroke"/><circle r="1.5" style="stroke:none;stroke-width:1;stroke-dasharray:none;stroke-linecap:butt;stroke-dashoffset:0;stroke-linejoin:miter;stroke-miterlimit:4;fill:#7c3aed;fill-rule:nonzero;opacity:1" transform="matrix(6.11 0 0 7.39 690.32 423.77)" vector-effect="non-scaling-stroke"/><circle r="1.5" style="stroke:none;stroke-width:1;stroke-dasharray:none;stroke-linecap:butt;stroke-dashoffset:0;stroke-linejoin:miter;stroke-miterlimit:4;fill:#7c3aed;fill-rule:nonzero;opacity:1" transform="matrix(6.11 0 0 7.39 714.76 423.77)" vector-effect="non-scaling-stroke"/><rect width="74.92" height="38.83" x="-37.46" y="-19.415" rx="0" ry="0" style="stroke:#000;stroke-width:0;stroke-dasharray:none;stroke-linecap:butt;stroke-dashoffset:0;stroke-linejoin:miter;stroke-miterlimit:4;fill:#fff;fill-rule:nonzero;opacity:1" transform="matrix(1.79 0 0 1.4 699.38 418.8)" vector-effect="non-scaling-stroke"/><circle r="35" style="stroke:#000;stroke-width:0;stroke-dasharray:none;stroke-linecap:butt;stroke-dashoffset:0;stroke-linejoin:miter;stroke-miterlimit:4;fill:#6d5fe0;fill-rule:nonzero;opacity:1" transform="matrix(.45 0 0 .43 637.22 409.98)" vector-effect="non-scaling-stroke"/><circle r="35" style="stroke:#000;stroke-width:0;stroke-dasharray:none;stroke-linecap:butt;stroke-dashoffset:0;stroke-linejoin:miter;stroke-miterlimit:4;fill:#6d5fe0;fill-rule:nonzero;opacity:1" transform="matrix(.45 0 0 .43 681.4 409.51)" vector-effect="non-scaling-stroke"/><circle r="35" style="stroke:#000;stroke-width:0;stroke-dasharray:none;stroke-linecap:butt;stroke-dashoffset:0;stroke-linejoin:miter;stroke-miterlimit:4;fill:#6d5fe0;fill-rule:nonzero;opacity:1" transform="matrix(.45 0 0 .43 723.31 409.07)" vector-effect="non-scaling-stroke"/></svg>